<?xml version="1.0" encoding="UTF-8" standalone="no"?>
<!-- Created with Inkscape (http://www.inkscape.org/) -->

<svg
   width="184.0354mm"
   height="184.39062mm"
   viewBox="0 0 184.0354 184.39062"
   version="1.1"
   id="svg2257"
   sodipodi:docname="esquema.svg"
   xml:space="preserve"
   inkscape:version="1.2.1 (9c6d41e410, 2022-07-14)"
   xmlns:inkscape="http://www.inkscape.org/namespaces/inkscape"
   xmlns:sodipodi="http://sodipodi.sourceforge.net/DTD/sodipodi-0.dtd"
   xmlns="http://www.w3.org/2000/svg"
   xmlns:svg="http://www.w3.org/2000/svg"><sodipodi:namedview
     id="namedview2259"
     pagecolor="#ffffff"
     bordercolor="#000000"
     borderopacity="0.25"
     inkscape:showpageshadow="2"
     inkscape:pageopacity="0.0"
     inkscape:pagecheckerboard="0"
     inkscape:deskcolor="#d1d1d1"
     inkscape:document-units="mm"
     showgrid="false"
     inkscape:zoom="0.68445047"
     inkscape:cx="447.07399"
     inkscape:cy="374.02268"
     inkscape:window-width="1366"
     inkscape:window-height="705"
     inkscape:window-x="-8"
     inkscape:window-y="-8"
     inkscape:window-maximized="1"
     inkscape:current-layer="layer1" /><defs
     id="defs2254"><clipPath
       clipPathUnits="userSpaceOnUse"
       id="clipPath198"><path
         d="M 397.904,401.684 H 799.382 V 799.208 H 397.904 Z"
         id="path196" /></clipPath><linearGradient
       x1="0"
       y1="0"
       x2="1"
       y2="0"
       gradientUnits="userSpaceOnUse"
       gradientTransform="matrix(0,178.3159,178.3159,0,598.64355,401.68359)"
       spreadMethod="pad"
       id="linearGradient208"><stop
         style="stop-opacity:1;stop-color:#e5e5e5"
         offset="0"
         id="stop204" /><stop
         style="stop-opacity:1;stop-color:#ffffff"
         offset="1"
         id="stop206" /></linearGradient><clipPath
       clipPathUnits="userSpaceOnUse"
       id="clipPath380"><path
         d="M 0,800 H 800 V 0 H 0 Z"
         id="path378" /></clipPath><clipPath
       clipPathUnits="userSpaceOnUse"
       id="clipPath402"><path
         d="M 0,800 H 800 V 0 H 0 Z"
         id="path400" /></clipPath><clipPath
       clipPathUnits="userSpaceOnUse"
       id="clipPath424"><path
         d="M 0,800 H 800 V 0 H 0 Z"
         id="path422" /></clipPath></defs><g
     inkscape:label="Capa 1"
     inkscape:groupmode="layer"
     id="layer1"
     transform="translate(-44.649111,-11.474512)"><g
       id="g192"
       transform="matrix(0.23048824,0,0,-0.23048825,44.293934,195.86512)"
       inkscape:export-filename="esquema.svg"
       inkscape:export-xdpi="96"
       inkscape:export-ydpi="96"><g
         id="g194"
         clip-path="url(#clipPath198)"><g
           id="g200"><g
             id="g202"><path
               d="M 397.904,401.684 H 799.382 V 799.208 H 397.904 Z"
               style="fill:url(#linearGradient208);stroke:none"
               id="path210" /></g></g></g></g><path
       d="M 44.649113,102.94101 H 136.98108 V 11.474513 H 44.649113 Z"
       style="fill:#e5e5e5;fill-opacity:1;fill-rule:nonzero;stroke:none;stroke-width:0.230489"
       id="path212" /><path
       d="m 135.34278,195.86512 h 93.34174 v -92.92411 h -93.34174 z"
       style="fill:#e5e5e5;fill-opacity:1;fill-rule:nonzero;stroke:none;stroke-width:0.230489"
       id="path214" /><g
       id="g224"
       transform="matrix(0.23048824,0,0,-0.23048825,135.34276,180.0294)"><path
         d="M 0,0 C 183.9,0 332.978,149.078 332.978,332.978 332.978,516.877 183.9,665.957 0,665.957 c -183.898,0 -332.978,-149.08 -332.978,-332.979 C -332.978,149.078 -183.898,0 0,0 m -353.146,332.978 c 0,195.038 158.109,353.147 353.147,353.147 195.036,0 353.145,-158.109 353.145,-353.147 0,-195.037 -158.109,-353.146 -353.145,-353.146 -195.038,0 -353.147,158.109 -353.147,353.146"
         style="fill:#b3b3b3;fill-opacity:1;fill-rule:nonzero;stroke:none"
         id="path226" /></g><g
       id="g228"
       transform="matrix(0.23048824,0,0,-0.23048825,78.032434,102.94099)"><path
         d="M 0,0 C 0,137.325 111.324,248.648 248.648,248.648 385.972,248.648 497.296,137.325 497.296,0 497.296,-137.324 385.972,-248.648 248.648,-248.648 111.324,-248.648 0,-137.324 0,0"
         style="fill:#999999;fill-opacity:1;fill-rule:nonzero;stroke:none"
         id="path230" /></g><g
       id="g232"
       transform="matrix(0.23048824,0,0,-0.23048825,88.411504,102.94099)"><path
         d="m 0,0 c 0,112.455 91.163,203.618 203.617,203.618 112.455,0 203.617,-91.163 203.617,-203.618 0,-112.455 -91.162,-203.617 -203.617,-203.617 C 91.163,-203.617 0,-112.455 0,0"
         style="fill:#ffffff;fill-opacity:1;fill-rule:nonzero;stroke:none"
         id="path234" /></g><g
       id="g236"
       transform="matrix(0.23048824,0,0,-0.23048825,162.59765,102.94099)"
       style="fill:#0371d4;fill-opacity:1"><path
         d="m 0,0 c 0,53.494 43.366,96.86 96.859,96.86 53.495,0 96.861,-43.366 96.861,-96.86 0,-53.495 -43.366,-96.86 -96.861,-96.86 C 43.366,-96.86 0,-53.495 0,0"
         style="fill:#0371d4;fill-opacity:1;fill-rule:nonzero;stroke:none"
         id="path238" /></g><g
       id="g240"
       transform="matrix(0.23048824,0,0,-0.23048825,61.083112,102.94099)"
       style="fill:#0371d4;fill-opacity:1"><path
         d="m 0,0 c 0,53.494 43.366,96.86 96.859,96.86 53.495,0 96.861,-43.366 96.861,-96.86 0,-53.495 -43.366,-96.86 -96.861,-96.86 C 43.366,-96.86 0,-53.495 0,0"
         style="fill:#0371d4;fill-opacity:1;fill-rule:nonzero;stroke:none"
         id="path242" /></g><g
       id="g244"
       transform="matrix(0.23048824,0,0,-0.23048825,114.65609,50.975343)"><path
         d="m 0,0 c 0,53.494 43.366,96.86 96.859,96.86 53.495,0 96.861,-43.366 96.861,-96.86 0,-53.495 -43.366,-96.86 -96.861,-96.86 C 43.366,-96.86 0,-53.495 0,0"
         style="fill:#0371d4;fill-opacity:1;fill-rule:nonzero;stroke:none"
         id="path246" /></g><g
       id="g248"
       transform="matrix(0.23048824,0,0,-0.23048825,128.4855,24.451631)"><path
         d="M 0,0 C 0,20.357 16.503,36.86 36.86,36.86 57.217,36.86 73.719,20.357 73.719,0 73.719,-20.357 57.217,-36.86 36.86,-36.86 16.503,-36.86 0,-20.357 0,0"
         style="fill:#f2f2f2;fill-opacity:1;fill-rule:nonzero;stroke:none"
         id="path250" /></g><g
       id="g252"
       transform="matrix(0.23048824,0,0,-0.23048825,113.01792,154.69506)"
       style="fill:#0371d4;fill-opacity:1"><path
         d="m 0,0 c 0,53.494 43.366,96.86 96.859,96.86 53.495,0 96.861,-43.366 96.861,-96.86 0,-53.495 -43.366,-96.86 -96.861,-96.86 C 43.366,-96.86 0,-53.495 0,0"
         style="fill:#0371d4;fill-opacity:1;fill-rule:nonzero;stroke:none"
         id="path254" /></g><text
       xml:space="preserve"
       style="font-variant:normal;font-weight:bold;font-stretch:normal;font-size:4.84025px;font-family:Arial;-inkscape-font-specification:'Arial Bold';writing-mode:lr-tb;fill:#ffffff;fill-opacity:1;fill-rule:nonzero;stroke:none;stroke-width:0.230489;font-style:normal"
       id="text264"
       x="118.39896"
       y="53.456566"><tspan
         x="118.39896 119.75422 123.336 126.72417 129.24112 131.75804 133.79094 135.14621 139.21202 142.79382 146.56923 147.92448 151.9903"
         y="53.456566"
         sodipodi:role="line"
         id="tspan256"
         style="stroke-width:0.230489;fill:#ffffff;stroke:none;-inkscape-font-specification:'Arial Bold';font-family:Arial;font-weight:bold;font-style:normal;font-stretch:normal;font-variant:normal">INVESTIGACIÓN</tspan><tspan
         x="176.21091 179.59911 180.95438 183.47131 185.98825 189.57004"
         y="105.43121"
         sodipodi:role="line"
         id="tspan258"
         style="stroke-width:0.230489;fill:#ffffff;stroke:none;-inkscape-font-specification:'Arial Bold';font-family:Arial;font-weight:bold;font-style:normal;font-stretch:normal;font-variant:normal">DISEÑO</tspan><tspan
         x="119.03303 121.74356 124.5509 128.61671 132.0049 135.10265 138.87807 142.65344 144.00871 148.07454"
         y="156.88792"
         sodipodi:role="line"
         id="tspan260"
         style="stroke-width:0.230489;fill:#ffffff;stroke:none;-inkscape-font-specification:'Arial Bold';font-family:Arial;font-weight:bold;font-style:normal;font-stretch:normal;font-variant:normal">PRODUCCIÓN</tspan><tspan
         x="70.064186 73.839569 77.905403 81.48716 84.004112 87.101883 91.458084"
         y="105.43121"
         sodipodi:role="line"
         id="tspan262"
         style="stroke-width:0.230489;fill:#ffffff;stroke:none;-inkscape-font-specification:'Arial Bold';font-family:Arial;font-weight:bold;font-style:normal;font-stretch:normal;font-variant:normal">CONSUMO</tspan></text><text
       xml:space="preserve"
       style="font-variant:normal;font-weight:bold;font-stretch:normal;font-size:2.76586px;font-family:Arial;-inkscape-font-specification:'Arial Bold';writing-mode:lr-tb;fill:#000000;fill-opacity:1;fill-rule:nonzero;stroke:none;stroke-width:0.230489;font-style:normal"
       id="text278"
       x="186.4865"
       y="59.646557"><tspan
         x="186.4865 188.80981 190.63528 192.40544 193.29051 194.12027 195.7798 197.4393 198.10309 199.92857 201.75401"
         y="59.646557"
         sodipodi:role="line"
         id="tspan266"
         style="stroke-width:0.230489;-inkscape-font-specification:'Arial Bold';font-family:Arial;font-weight:bold;font-style:normal;font-stretch:normal;font-variant:normal">Oportunidad</tspan><tspan
         x="153.8853 155.43419 156.31926 158.08943 158.91916 160.68932 161.51907 162.18289 164.00835"
         y="169.81902"
         sodipodi:role="line"
         id="tspan268"
         style="stroke-width:0.230489;-inkscape-font-specification:'Arial Bold';font-family:Arial;font-weight:bold;font-style:normal;font-stretch:normal;font-variant:normal">Prototipo</tspan><tspan
         x="187.39093 189.88022 191.70567 193.53113 195.19066 196.96077 197.79057 199.61604"
         y="146.97578"
         sodipodi:role="line"
         id="tspan270"
         style="stroke-width:0.230489;-inkscape-font-specification:'Arial Bold';font-family:Arial;font-weight:bold;font-style:normal;font-stretch:normal;font-variant:normal">Maquetas</tspan><tspan
         x="130.12103 131.44865 133.21881 134.98895 136.81444 138.63991 140.46536 142.23552"
         y="25.380331"
         sodipodi:role="line"
         id="tspan272"
         style="stroke-width:0.230489;-inkscape-font-specification:'Arial Bold';font-family:Arial;font-weight:bold;font-style:normal;font-stretch:normal;font-variant:normal">Feedback</tspan><tspan
         x="158.12814 160.17487 161.83438 163.65985 164.32365 164.98746 166.20445 166.86827 168.08522 168.85966 170.68513 172.45528 173.22974 174.99988 176.82533 179.42525 181.25073 183.02086 183.79532 185.06761 185.84204 188.44196 190.21213 191.0972 192.86731 194.69279 196.51828"
         y="36.82822"
         sodipodi:role="line"
         id="tspan274"
         style="stroke-width:0.230489;-inkscape-font-specification:'Arial Bold';font-family:Arial;font-weight:bold;font-style:normal;font-stretch:normal;font-variant:normal">Análisis de campo / mercado</tspan><tspan
         x="175.46176 177.50853 179.168 179.9978 181.76793 183.53812 185.30826 187.13371 188.90385 190.56339 191.39311 193.1633"
         y="48.55547"
         sodipodi:role="line"
         id="tspan276"
         style="stroke-width:0.230489;-inkscape-font-specification:'Arial Bold';font-family:Arial;font-weight:bold;font-style:normal;font-stretch:normal;font-variant:normal">Antecedentes</tspan></text><text
       xml:space="preserve"
       style="font-variant:normal;font-weight:normal;font-stretch:normal;font-size:2.76586px;font-family:Arial;-inkscape-font-specification:Arial;writing-mode:lr-tb;fill:#000000;fill-opacity:1;fill-rule:nonzero;stroke:none;stroke-width:0.230489;font-style:normal"
       id="text284"
       x="199.90924"
       y="41.898037"><tspan
         x="199.90924 201.39171 202.46486 203.40248 205.29158 207.18617 208.99785 209.76396 211.65858 213.45638 214.22252 214.77568 216.66478"
         y="41.898037"
         sodipodi:role="line"
         id="tspan280"
         style="stroke-width:0.230489;-inkscape-font-specification:Arial;font-family:Arial;font-weight:normal;font-style:normal;font-stretch:normal;font-variant:normal">Estado de la </tspan><tspan
         x="203.44952 204.38715 206.18494 207.97446 209.66164 210.2148 212.0043"
         y="45.217068"
         sodipodi:role="line"
         id="tspan282"
         style="stroke-width:0.230489;-inkscape-font-specification:Arial;font-family:Arial;font-weight:normal;font-style:normal;font-stretch:normal;font-variant:normal">técnica</tspan></text><text
       xml:space="preserve"
       style="font-variant:normal;font-weight:bold;font-stretch:normal;font-size:2.76586px;font-family:Arial;-inkscape-font-specification:'Arial Bold';writing-mode:lr-tb;fill:#000000;fill-opacity:1;fill-rule:nonzero;stroke:none;stroke-width:0.230489;font-style:normal"
       id="text306"
       x="197.56651"
       y="76.695312"><tspan
         x="197.56651 200.05582 201.88126 202.76636 204.59181 206.36195 208.02145 209.79164 211.00861 211.78304 213.38724"
         y="76.695312"
         sodipodi:role="line"
         id="tspan286"
         style="stroke-width:0.230489;-inkscape-font-specification:'Arial Bold';font-family:Arial;font-weight:bold;font-style:normal;font-stretch:normal;font-variant:normal">Márgenes y </tspan><tspan
         x="197.81544 198.47928 199.14307 201.74298 202.40678 203.23653 205.062 206.83215 207.49599 209.2661 210.92564 212.69576"
         y="80.014343"
         sodipodi:role="line"
         id="tspan288"
         style="stroke-width:0.230489;-inkscape-font-specification:'Arial Bold';font-family:Arial;font-weight:bold;font-style:normal;font-stretch:normal;font-variant:normal">limitaciones</tspan><tspan
         x="191.4429 192.99179 193.87689 195.64703 197.47249 199.13202 200.90216 202.11914 202.94888 204.77435"
         y="139.49692"
         sodipodi:role="line"
         id="tspan290"
         style="stroke-width:0.230489;-inkscape-font-specification:'Arial Bold';font-family:Arial;font-weight:bold;font-style:normal;font-stretch:normal;font-variant:normal">Propuestas</tspan><tspan
         x="194.56831 195.73001 197.55547 198.44054 200.26599 202.03616"
         y="68.400497"
         sodipodi:role="line"
         id="tspan292"
         style="stroke-width:0.230489;-inkscape-font-specification:'Arial Bold';font-family:Arial;font-weight:bold;font-style:normal;font-stretch:normal;font-variant:normal">Target</tspan><tspan
         x="199.19562 201.13171 202.90186 203.67628 204.34012 205.99962 206.66344 208.43358 209.09738 210.86754"
         y="127.86647"
         sodipodi:role="line"
         id="tspan294"
         style="stroke-width:0.230489;-inkscape-font-specification:'Arial Bold';font-family:Arial;font-weight:bold;font-style:normal;font-stretch:normal;font-variant:normal">Definición</tspan><tspan
         x="190.26192 192.03203 193.24901 194.07877 194.96387 196.78932 197.61906 199.38924 201.21469 201.87849 203.64865 205.47412 206.24858 207.52084 208.29529 210.06544 211.83559 213.49512 215.26526 217.0354 218.86086 219.69063"
         y="131.1855"
         sodipodi:role="line"
         id="tspan296"
         style="stroke-width:0.230489;-inkscape-font-specification:'Arial Bold';font-family:Arial;font-weight:bold;font-style:normal;font-stretch:normal;font-variant:normal">estrategica / concepto</tspan><tspan
         x="103.02116 105.51044 107.33591 108.16565 109.05074 109.71453 111.48468 113.25483 114.13994 114.80373"
         y="180.34036"
         sodipodi:role="line"
         id="tspan298"
         style="stroke-width:0.230489;-inkscape-font-specification:'Arial Bold';font-family:Arial;font-weight:bold;font-style:normal;font-stretch:normal;font-variant:normal">Matricería</tspan><tspan
         x="177.97592 179.52484 180.40991 182.06941 183.83955 185.66504 187.49049 188.26495 190.09041"
         y="153.90979"
         sodipodi:role="line"
         id="tspan300"
         style="stroke-width:0.230489;-inkscape-font-specification:'Arial Bold';font-family:Arial;font-weight:bold;font-style:normal;font-stretch:normal;font-variant:normal">Prueba de</tspan><tspan
         x="177.89294 180.49289 182.31834 183.1481 184.91826 185.80333 186.46713 188.29262 188.95641 190.72655"
         y="157.22882"
         sodipodi:role="line"
         id="tspan302"
         style="stroke-width:0.230489;-inkscape-font-specification:'Arial Bold';font-family:Arial;font-weight:bold;font-style:normal;font-stretch:normal;font-variant:normal">materiales</tspan><tspan
         x="164.85194 166.29018 166.95399 169.55389 171.21341 171.87721 173.70268 175.47282 176.13664 177.90678"
         y="163.36073"
         sodipodi:role="line"
         id="tspan304"
         style="stroke-width:0.230489;-inkscape-font-specification:'Arial Bold';font-family:Arial;font-weight:bold;font-style:normal;font-stretch:normal;font-variant:normal">Simulación</tspan></text><text
       xml:space="preserve"
       style="font-variant:normal;font-weight:normal;font-stretch:normal;font-size:2.76586px;font-family:Arial;-inkscape-font-specification:Arial;writing-mode:lr-tb;fill:#000000;fill-opacity:1;fill-rule:nonzero;stroke:none;stroke-width:0.230489;font-style:normal"
       id="text316"
       x="185.92502"
       y="165.89703"><tspan
         x="185.92502 188.17369 190.22041 192.2782 193.48689 195.73553 197.78226 200.32407 201.53276 202.87421 204.35672"
         y="165.89703"
         sodipodi:role="line"
         id="tspan308"
         style="stroke-width:0.230489;-inkscape-font-specification:Arial;font-family:Arial;font-weight:normal;font-style:normal;font-stretch:normal;font-variant:normal">CAD/CAM/FEM</tspan><tspan
         x="161.53015 162.15523 164.7496 166.63591 167.46844 169.26625 170.3394 170.89256 172.70421 174.39137 175.15752 176.68983 178.74762 179.51376 180.53439 181.87582 183.93361 186.47542"
         y="176.03944"
         sodipodi:role="line"
         id="tspan310"
         style="stroke-width:0.230489;-inkscape-font-specification:Arial;font-family:Arial;font-weight:normal;font-style:normal;font-stretch:normal;font-variant:normal">Impresión 3D (FDM)</tspan><tspan
         x="202.19382 204.73563 206.54727 208.44186 210.2397 210.79285 212.68195 214.57654 216.38821 217.15436 218.68663 220.74442"
         y="153.91255"
         sodipodi:role="line"
         id="tspan312"
         style="stroke-width:0.230489;-inkscape-font-specification:Arial;font-family:Arial;font-weight:normal;font-style:normal;font-stretch:normal;font-variant:normal">Modelado 3D </tspan><tspan
         x="197.34528 198.55396 199.3201 201.36684 203.054 203.60716 206.20155 208.09061 209.88016 210.4333 212.24495 213.93211 214.69826 215.90695 216.6731 218.35193 220.14977 221.83693 223.73157 225.52937"
         y="157.23158"
         sodipodi:role="line"
         id="tspan314"
         style="stroke-width:0.230489;-inkscape-font-specification:Arial;font-family:Arial;font-weight:normal;font-style:normal;font-stretch:normal;font-variant:normal">/ Animación / Render</tspan></text><text
       xml:space="preserve"
       style="font-variant:normal;font-weight:bold;font-stretch:normal;font-size:2.76586px;font-family:Arial;-inkscape-font-specification:'Arial Bold';writing-mode:lr-tb;fill:#000000;fill-opacity:1;fill-rule:nonzero;stroke:none;stroke-width:0.230489;font-style:normal"
       id="text322"
       x="81.638313"
       y="171.54492"><tspan
         x="81.638313 83.18718 84.84671 86.616852 87.833817 88.663582 90.489052 91.263489 93.088959 93.863388 95.688873 97.348389 99.007904 99.837654"
         y="171.54492"
         sodipodi:role="line"
         id="tspan318"
         style="stroke-width:0.230489;-inkscape-font-specification:'Arial Bold';font-family:Arial;font-weight:bold;font-style:normal;font-stretch:normal;font-variant:normal">Puesta a punto</tspan><tspan
         x="70.837639 72.386528 73.271599 75.041725 76.203392 77.752251 78.637367 80.407516 82.232964 83.892479 85.662643 87.432785 88.096581 89.86673"
         y="160.24915"
         sodipodi:role="line"
         id="tspan320"
         style="stroke-width:0.230489;-inkscape-font-specification:'Arial Bold';font-family:Arial;font-weight:bold;font-style:normal;font-stretch:normal;font-variant:normal">Pre-Producción</tspan></text><text
       xml:space="preserve"
       style="font-variant:normal;font-weight:normal;font-stretch:normal;font-size:2.76586px;font-family:Arial;-inkscape-font-specification:Arial;writing-mode:lr-tb;fill:#000000;fill-opacity:1;fill-rule:nonzero;stroke:none;stroke-width:0.230489;font-style:normal"
       id="text328"
       x="58.936138"
       y="168.43333"><tspan
         x="58.936138 60.573528 61.406052 63.087704 64.885498 66.77182 68.660912 69.734047 70.500183"
         y="168.43333"
         sodipodi:role="line"
         id="tspan324"
         style="stroke-width:0.230489;-inkscape-font-specification:Arial;font-family:Arial;font-weight:normal;font-style:normal;font-stretch:normal;font-variant:normal">Pruebas y</tspan><tspan
         x="58.382969 59.915245 61.804337 62.357521 62.910679 64.805298 66.694397 68.483887 69.037048 70.848701"
         y="171.75237"
         sodipodi:role="line"
         id="tspan326"
         style="stroke-width:0.230489;-inkscape-font-specification:Arial;font-family:Arial;font-weight:normal;font-style:normal;font-stretch:normal;font-variant:normal">validación</tspan></text><text
       xml:space="preserve"
       style="font-variant:normal;font-weight:bold;font-stretch:normal;font-size:2.76586px;font-family:Arial;-inkscape-font-specification:'Arial Bold';writing-mode:lr-tb;fill:#000000;fill-opacity:1;fill-rule:nonzero;stroke:none;stroke-width:0.230489;font-style:normal"
       id="text340"
       x="63.107059"
       y="149.39868"><tspan
         x="63.107059 64.434677 66.260132 68.085609 68.97068 69.634483 71.40464 73.230095 75.000252 75.664047 77.434196"
         y="149.39868"
         sodipodi:role="line"
         id="tspan330"
         style="stroke-width:0.230489;-inkscape-font-specification:'Arial Bold';font-family:Arial;font-weight:bold;font-style:normal;font-stretch:normal;font-variant:normal">Fabricación</tspan><tspan
         x="55.185631 56.623886 58.283398 59.500385 61.325848 63.925758 65.751213 66.415039 68.240494 68.95961"
         y="138.468"
         sodipodi:role="line"
         id="tspan332"
         style="stroke-width:0.230489;-inkscape-font-specification:'Arial Bold';font-family:Arial;font-weight:bold;font-style:normal;font-stretch:normal;font-variant:normal">Ensamblaje</tspan><tspan
         x="51.567886 53.725258 55.495411 57.154926 57.984676 58.869747 60.639893 61.303703 62.078167 63.903637"
         y="124.21829"
         sodipodi:role="line"
         id="tspan334"
         style="stroke-width:0.230489;-inkscape-font-specification:'Arial Bold';font-family:Arial;font-weight:bold;font-style:normal;font-stretch:normal;font-variant:normal">Control de</tspan><tspan
         x="53.421021 55.191166 57.016624 57.680431 58.344242 60.169727 61.99519"
         y="127.53734"
         sodipodi:role="line"
         id="tspan336"
         style="stroke-width:0.230489;-inkscape-font-specification:'Arial Bold';font-family:Arial;font-weight:bold;font-style:normal;font-stretch:normal;font-variant:normal">calidad</tspan><tspan
         x="55.1884 57.124504 57.788315 59.005295 59.835045 60.720127 61.383919 63.209393 64.868912 66.639061 67.302872 69.073021"
         y="76.692543"
         sodipodi:role="line"
         id="tspan338"
         style="stroke-width:0.230489;-inkscape-font-specification:'Arial Bold';font-family:Arial;font-weight:bold;font-style:normal;font-stretch:normal;font-variant:normal">Distribución</tspan></text><text
       xml:space="preserve"
       style="font-variant:normal;font-weight:bold;font-stretch:normal;font-size:6.16876px;font-family:Arial;-inkscape-font-specification:'Arial Bold';writing-mode:lr-tb;fill:#000000;fill-opacity:1;fill-rule:nonzero;stroke:none;stroke-width:0.230489;font-style:normal"
       id="text346"
       x="116.67558"
       y="102.24761"><tspan
         x="116.67558 120.99369 124.20145 127.40922 131.97409 135.55199 139.12985 144.31163 147.02586 149.74014"
         y="102.24761"
         sodipodi:role="line"
         id="tspan342"
         style="stroke-width:0.230489;-inkscape-font-specification:'Arial Bold';font-family:Arial;font-weight:bold;font-style:normal;font-stretch:normal;font-variant:normal">DESARROLLO</tspan><tspan
         x="113.03599 117.35412 120.56189 122.28915 125.74363 129.32155 134.5033 138.82143 142.76945 147.58109 150.17195 155.3537"
         y="109.65012"
         sodipodi:role="line"
         id="tspan344"
         style="stroke-width:0.230489;-inkscape-font-specification:'Arial Bold';font-family:Arial;font-weight:bold;font-style:normal;font-stretch:normal;font-variant:normal">DE PRODUCTOS</tspan></text><text
       xml:space="preserve"
       style="font-variant:normal;font-weight:normal;font-stretch:normal;font-size:2.30489px;font-family:Arial;-inkscape-font-specification:Arial;writing-mode:lr-tb;fill:#000000;fill-opacity:1;fill-rule:nonzero;stroke:none;stroke-width:0.230489;font-style:normal"
       id="text350"
       x="50.217892"
       y="191.48581"><tspan
         x="50.217892 51.646893 53.122021 54.412762 55.749592 57.132526 57.777897 59.114723 60.589844 62.111073 62.848625 63.401814 64.923035 66.305954 67.781075 68.841324 69.486694 70.869629"
         y="191.48581"
         sodipodi:role="line"
         id="tspan348"
         style="stroke-width:0.230489;-inkscape-font-specification:Arial;font-family:Arial;font-weight:normal;font-style:normal;font-stretch:normal;font-variant:normal">Kevyn Rodriguez | </tspan></text><text
       xml:space="preserve"
       style="font-variant:normal;font-weight:normal;font-stretch:normal;font-size:2.30489px;font-family:Arial;-inkscape-font-specification:Arial;writing-mode:lr-tb;fill:#000000;fill-opacity:1;fill-rule:nonzero;stroke:none;stroke-width:0.230489;font-style:normal"
       id="text354"
       x="71.514999"
       y="191.48581"><tspan
         x="71.514999 72.750404 73.644722 75.216637 76.617989 78.116158 80.27816 81.852386 82.490837 84.062775 85.636993 86.330772 87.904999 88.543457 90.041626 90.502617 91.141068 92.719902 94.218079 95.112373 96.686615 97.380371 98.07415 99.583839 100.04485 100.50579 102.01549 102.65395 104.2328 105.73096 106.36942 107.94135 108.6351 110.14481 111.72365 113.12502 114.61631 115.39765 116.90733 117.80164"
         y="191.48581"
         sodipodi:role="line"
         id="tspan352"
         style="stroke-width:0.230489;-inkscape-font-specification:Arial;font-family:Arial;font-weight:normal;font-style:normal;font-stretch:normal;font-variant:normal">Esquema para el desarrollo de productos.</tspan></text><text
       xml:space="preserve"
       style="font-variant:normal;font-weight:normal;font-stretch:normal;font-size:2.76586px;font-family:Arial;-inkscape-font-specification:Arial;writing-mode:lr-tb;fill:#000000;fill-opacity:1;fill-rule:nonzero;stroke:none;stroke-width:0.230489;font-style:normal"
       id="text362"
       x="212.91296"
       y="68.405113"><tspan
         x="212.91296 215.16161 216.97325 218.04639 218.98401 220.79565"
         y="68.405113"
         sodipodi:role="line"
         id="tspan356"
         style="stroke-width:0.230489;-inkscape-font-specification:Arial;font-family:Arial;font-weight:normal;font-style:normal;font-stretch:normal;font-variant:normal">Costos</tspan><tspan
         x="208.73653 209.91476 211.7126 213.50208 215.18927 217.00092 217.55406 219.36571 221.22714 221.7803 223.6694"
         y="53.455643"
         sodipodi:role="line"
         id="tspan358"
         style="stroke-width:0.230489;-inkscape-font-specification:Arial;font-family:Arial;font-weight:normal;font-style:normal;font-stretch:normal;font-variant:normal">Tecnologías</tspan><tspan
         x="209.3533 211.24791 211.8011 212.87425 214.76056 216.5722 218.25937 218.81253 220.69885 221.25201 223.04984"
         y="56.774673"
         sodipodi:role="line"
         id="tspan360"
         style="stroke-width:0.230489;-inkscape-font-specification:Arial;font-family:Arial;font-weight:normal;font-style:normal;font-stretch:normal;font-variant:normal">disponibles</tspan></text><text
       xml:space="preserve"
       style="font-variant:normal;font-weight:bold;font-stretch:normal;font-size:2.76586px;font-family:Arial;-inkscape-font-specification:'Arial Bold';writing-mode:lr-tb;fill:#000000;fill-opacity:1;fill-rule:nonzero;stroke:none;stroke-width:0.230489;font-style:normal"
       id="text366"
       x="64.817818"
       y="57.20615"><tspan
         x="64.817818 66.366692 68.026207 69.851654 70.51548 71.179283 72.94944 73.613258 75.438705 77.264175"
         y="57.20615"
         sodipodi:role="line"
         id="tspan364"
         style="stroke-width:0.230489;-inkscape-font-specification:'Arial Bold';font-family:Arial;font-weight:bold;font-style:normal;font-stretch:normal;font-variant:normal">Publicidad</tspan></text><text
       xml:space="preserve"
       style="font-variant:normal;font-weight:normal;font-stretch:normal;font-size:2.76586px;font-family:Arial;-inkscape-font-specification:Arial;writing-mode:lr-tb;fill:#000000;fill-opacity:1;fill-rule:nonzero;stroke:none;stroke-width:0.230489;font-style:normal"
       id="text372"
       x="51.431053"
       y="41.897118"><tspan
         x="51.431053 52.056129 53.743305 54.61179 55.164959 56.846603 58.644402 60.331577 62.12109 63.918903 64.751427"
         y="41.897118"
         sodipodi:role="line"
         id="tspan368"
         style="stroke-width:0.230489;-inkscape-font-specification:Arial;font-family:Arial;font-weight:normal;font-style:normal;font-stretch:normal;font-variant:normal">Influencers</tspan><tspan
         x="49.829605 51.508492 53.306305 55.200916 56.998722"
         y="53.455643"
         sodipodi:role="line"
         id="tspan370"
         style="stroke-width:0.230489;-inkscape-font-specification:Arial;font-family:Arial;font-weight:normal;font-style:normal;font-stretch:normal;font-variant:normal">Redes</tspan></text><g
       id="g374"
       transform="matrix(0.23048824,0,0,-0.23048825,44.293934,195.86512)"><g
         id="g376"
         clip-path="url(#clipPath380)"><g
           id="g382"
           transform="translate(698.9941,403.1621)"><path
             d="M 0,0 C 0,20.357 16.503,36.86 36.859,36.86 57.218,36.86 73.72,20.357 73.72,0 73.72,-20.357 57.218,-36.86 36.859,-36.86 16.503,-36.86 0,-20.357 0,0"
             style="fill:#f2f2f2;fill-opacity:1;fill-rule:nonzero;stroke:none"
             id="path384" /></g></g></g><text
       xml:space="preserve"
       style="font-variant:normal;font-weight:bold;font-stretch:normal;font-size:2.76586px;font-family:Arial;-inkscape-font-specification:'Arial Bold';writing-mode:lr-tb;fill:#000000;fill-opacity:1;fill-rule:nonzero;stroke:none;stroke-width:0.230489;font-style:normal"
       id="text390"
       x="210.16626"
       y="102.09972"><tspan
         x="210.16626 212.21298 213.8725 214.70224 216.47238"
         y="102.09972"
         sodipodi:role="line"
         id="tspan386"
         style="stroke-width:0.230489;-inkscape-font-specification:'Arial Bold';font-family:Arial;font-weight:bold;font-style:normal;font-stretch:normal;font-variant:normal">Ante-</tspan><tspan
         x="207.9259 209.47478 210.35985 212.12999 213.73419 215.50436 217.27451 218.10425"
         y="105.41876"
         sodipodi:role="line"
         id="tspan388"
         style="stroke-width:0.230489;-inkscape-font-specification:'Arial Bold';font-family:Arial;font-weight:bold;font-style:normal;font-stretch:normal;font-variant:normal">Proyecto</tspan></text><text
       xml:space="preserve"
       style="font-variant:normal;font-weight:normal;font-stretch:normal;font-size:2.76586px;font-family:Arial;-inkscape-font-specification:Arial;writing-mode:lr-tb;fill:#000000;fill-opacity:1;fill-rule:nonzero;stroke:none;stroke-width:0.230489;font-style:normal"
       id="text394"
       x="210.85219"
       y="140.31836"><tspan
         x="210.85219 212.22957 213.61803 215.41583 216.35349 218.14296 219.83015 220.38333 222.07048"
         y="140.31836"
         sodipodi:role="line"
         id="tspan392"
         style="stroke-width:0.230489;-inkscape-font-specification:Arial;font-family:Arial;font-weight:normal;font-style:normal;font-stretch:normal;font-variant:normal">Sketching</tspan></text><g
       id="g396"
       transform="matrix(0.23048824,0,0,-0.23048825,44.293934,195.86512)"
       style="fill:#f2f2f2;fill-opacity:1"><g
         id="g398"
         clip-path="url(#clipPath402)"
         style="fill:#f2f2f2;fill-opacity:1"><g
           id="g404"
           transform="translate(358.166,59.1396)"
           style="fill:#f2f2f2;fill-opacity:1"><path
             d="M 0,0 C 0,20.357 16.503,36.86 36.859,36.86 57.218,36.86 73.72,20.357 73.72,0 73.72,-20.357 57.218,-36.86 36.859,-36.86 16.503,-36.86 0,-20.357 0,0"
             style="fill:#f2f2f2;fill-opacity:1;fill-rule:nonzero;stroke:none"
             id="path406" /></g></g></g><text
       xml:space="preserve"
       style="font-variant:normal;font-weight:bold;font-stretch:normal;font-size:2.76586px;font-family:Arial;-inkscape-font-specification:'Arial Bold';writing-mode:lr-tb;fill:#000000;fill-opacity:1;fill-rule:nonzero;stroke:none;stroke-width:0.230489;font-style:normal"
       id="text410"
       x="132.74312"
       y="183.46736"><tspan
         x="132.74312 134.34732 135.89621"
         y="183.46736"
         sodipodi:role="line"
         id="tspan408"
         style="stroke-width:0.230489;-inkscape-font-specification:'Arial Bold';font-family:Arial;font-weight:bold;font-style:normal;font-stretch:normal;font-variant:normal">RPN</tspan></text><text
       xml:space="preserve"
       style="font-variant:normal;font-weight:normal;font-stretch:normal;font-size:2.76586px;font-family:Arial;-inkscape-font-specification:Arial;writing-mode:lr-tb;fill:#000000;fill-opacity:1;fill-rule:nonzero;stroke:none;stroke-width:0.230489;font-style:normal"
       id="text416"
       x="206.27074"
       y="171.54649"><tspan
         x="206.27074 207.90813 208.74065 210.4223 212.22008 214.10641 215.9955 217.06863 217.83478 219.7294"
         y="171.54649"
         sodipodi:role="line"
         id="tspan412"
         style="stroke-width:0.230489;-inkscape-font-specification:Arial;font-family:Arial;font-weight:normal;font-style:normal;font-stretch:normal;font-variant:normal">Pruebas de</tspan><tspan
         x="206.48096 208.27876 209.11127 210.97267 212.78435 214.47151 216.28316 218.87752 219.43069"
         y="174.86554"
         sodipodi:role="line"
         id="tspan414"
         style="stroke-width:0.230489;-inkscape-font-specification:Arial;font-family:Arial;font-weight:normal;font-style:normal;font-stretch:normal;font-variant:normal">ergonomìa</tspan></text><g
       id="g418"
       transform="matrix(0.23048824,0,0,-0.23048825,44.293934,195.86512)"
       style="fill:#f2f2f2;fill-opacity:1"><g
         id="g420"
         clip-path="url(#clipPath424)"
         style="fill:#f2f2f2;fill-opacity:1"><g
           id="g426"
           transform="translate(18.1401,401.6836)"
           style="fill:#f2f2f2;fill-opacity:1"><path
             d="M 0,0 C 0,20.357 16.503,36.86 36.859,36.86 57.218,36.86 73.72,20.357 73.72,0 73.72,-20.357 57.218,-36.86 36.859,-36.86 16.503,-36.86 0,-20.357 0,0"
             style="fill:#f2f2f2;fill-opacity:1;fill-rule:nonzero;stroke:none"
             id="path428" /></g></g></g><text
       xml:space="preserve"
       style="font-variant:normal;font-weight:bold;font-stretch:normal;font-size:2.76586px;font-family:Arial;-inkscape-font-specification:'Arial Bold';writing-mode:lr-tb;fill:#000000;fill-opacity:1;fill-rule:nonzero;stroke:none;stroke-width:0.230489;font-style:normal"
       id="text434"
       x="50.940956"
       y="102.44051"><tspan
         x="50.940956 52.48983 53.374912 55.145073 56.970524 58.630054 60.400208 61.229946"
         y="102.44051"
         sodipodi:role="line"
         id="tspan430"
         style="stroke-width:0.230489;-inkscape-font-specification:'Arial Bold';font-family:Arial;font-weight:bold;font-style:normal;font-stretch:normal;font-variant:normal">Producto</tspan><tspan
         x="53.900425 55.228043 55.891838 57.551361 59.376827"
         y="105.75954"
         sodipodi:role="line"
         id="tspan432"
         style="stroke-width:0.230489;-inkscape-font-specification:'Arial Bold';font-family:Arial;font-weight:bold;font-style:normal;font-stretch:normal;font-variant:normal">Final</tspan></text><text
       xml:space="preserve"
       style="font-variant:normal;font-weight:normal;font-stretch:normal;font-size:2.76586px;font-family:Arial;-inkscape-font-specification:Arial;writing-mode:lr-tb;fill:#000000;fill-opacity:1;fill-rule:nonzero;stroke:none;stroke-width:0.230489;font-style:normal"
       id="text442"
       x="57.020317"
       y="159.61081"><tspan
         x="57.020317 58.657715 59.21088 61.008698 62.184181 64.073257"
         y="159.61081"
         sodipodi:role="line"
         id="tspan436"
         style="stroke-width:0.230489;-inkscape-font-specification:Arial;font-family:Arial;font-weight:normal;font-style:normal;font-stretch:normal;font-variant:normal">Piezas</tspan><tspan
         x="47.198753 49.447399 51.259041 52.946201 53.507683 55.189339 56.876499 57.814114 59.625759"
         y="152.01576"
         sodipodi:role="line"
         id="tspan438"
         style="stroke-width:0.230489;-inkscape-font-specification:Arial;font-family:Arial;font-weight:normal;font-style:normal;font-stretch:normal;font-variant:normal">Conjuntos</tspan><tspan
         x="47.782356 49.419746 51.308819 53.098335 54.486797 56.375885 58.237297 58.790478 60.477646"
         y="64.938225"
         sodipodi:role="line"
         id="tspan440"
         style="stroke-width:0.230489;-inkscape-font-specification:Arial;font-family:Arial;font-weight:normal;font-style:normal;font-stretch:normal;font-variant:normal">Packaging</tspan></text><text
       xml:space="preserve"
       style="font-variant:normal;font-weight:normal;font-stretch:normal;font-size:2.76586px;font-family:Arial;-inkscape-font-specification:Arial;writing-mode:lr-tb;fill:#000000;fill-opacity:1;fill-rule:nonzero;stroke:none;stroke-width:0.230489;font-style:normal"
       id="text448"
       x="88.412804"
       y="19.542177"><tspan
         x="88.412804 90.00872 90.655937 91.895027 92.547783 94.066238 94.652618 96.212532"
         y="19.542177"
         sodipodi:role="line"
         id="tspan444"
         style="stroke-width:0.230489;-inkscape-font-specification:Arial;font-family:Arial;font-weight:normal;font-style:normal;font-stretch:normal;font-variant:normal">Ciclo de</tspan><tspan
         x="88.412804 89.743195 90.390411 91.950348"
         y="22.861208"
         sodipodi:role="line"
         id="tspan446"
         style="stroke-width:0.230489;-inkscape-font-specification:Arial;font-family:Arial;font-weight:normal;font-style:normal;font-stretch:normal;font-variant:normal">vida</tspan></text><text
       xml:space="preserve"
       style="font-variant:normal;font-weight:normal;font-stretch:normal;font-size:2.76586px;font-family:Arial;-inkscape-font-specification:Arial;writing-mode:lr-tb;fill:#000000;fill-opacity:1;fill-rule:nonzero;stroke:none;stroke-width:0.230489;font-style:normal"
       id="text460"
       x="189.22562"
       y="30.746674"><tspan
         x="189.22562 191.47426 193.28592 195.88028 197.76659 199.56439 200.50204 202.29984 203.98703 205.7765 206.3297"
         y="30.746674"
         sodipodi:role="line"
         id="tspan450"
         style="stroke-width:0.230489;-inkscape-font-specification:Arial;font-family:Arial;font-weight:normal;font-style:normal;font-stretch:normal;font-variant:normal">Competencia</tspan><tspan
         x="57.183495 58.862373 60.660179 62.546513 64.228149 64.781319 65.854477 66.407639 67.345276 69.156921 70.230064"
         y="21.887627"
         sodipodi:role="line"
         id="tspan452"
         style="stroke-width:0.230489;-inkscape-font-specification:Arial;font-family:Arial;font-weight:normal;font-style:normal;font-stretch:normal;font-variant:normal">Requisitos </tspan><tspan
         x="54.279346 54.832531 56.519699 58.414318 58.967484 60.04063 61.926945 63.724754 65.411942 66.4851 68.374168 70.260498 72.058296 73.131447"
         y="25.206656"
         sodipodi:role="line"
         id="tspan454"
         style="stroke-width:0.230489;-inkscape-font-specification:Arial;font-family:Arial;font-weight:normal;font-style:normal;font-stretch:normal;font-variant:normal">indispensabes,</tspan><tspan
         x="55.670586 57.46838 58.541542 60.427853 62.22567 63.058182 64.947273 66.833595 67.386749 69.184563 70.257721 71.023865"
         y="28.525688"
         sodipodi:role="line"
         id="tspan456"
         style="stroke-width:0.230489;-inkscape-font-specification:Arial;font-family:Arial;font-weight:normal;font-style:normal;font-stretch:normal;font-variant:normal">esperables y</tspan><tspan
         x="55.803337 56.876499 58.558136 60.444466 62.242275 63.074791 64.96386 66.85849 68.67012 69.502632 71.300461"
         y="31.844721"
         sodipodi:role="line"
         id="tspan458"
         style="stroke-width:0.230489;-inkscape-font-specification:Arial;font-family:Arial;font-weight:normal;font-style:normal;font-stretch:normal;font-variant:normal">superadores</tspan></text><text
       xml:space="preserve"
       style="font-variant:normal;font-weight:bold;font-stretch:normal;font-size:2.76586px;font-family:Arial;-inkscape-font-specification:'Arial Bold';writing-mode:lr-tb;fill:#000000;fill-opacity:1;fill-rule:nonzero;stroke:none;stroke-width:0.230489;font-style:normal"
       id="text468"
       x="80.405655"
       y="39.73571"><tspan
         x="80.405655 81.843887 83.614067 85.439537 87.209663 88.094749 88.9245"
         y="39.73571"
         sodipodi:role="line"
         id="tspan462"
         style="stroke-width:0.230489;-inkscape-font-specification:'Arial Bold';font-family:Arial;font-weight:bold;font-style:normal;font-stretch:normal;font-variant:normal">Soporte</tspan><tspan
         x="80.267365 81.429039 83.199165 84.969345 86.62883 87.292641 89.062798"
         y="43.054745"
         sodipodi:role="line"
         id="tspan464"
         style="stroke-width:0.230489;-inkscape-font-specification:'Arial Bold';font-family:Arial;font-weight:bold;font-style:normal;font-stretch:normal;font-variant:normal">Técnico</tspan><tspan
         x="96.245712 97.794601 99.564774 100.78175 101.6115 102.38594 104.5433 106.31345 107.97297 109.18996 110.84947 113.44935"
         y="29.875425"
         sodipodi:role="line"
         id="tspan466"
         style="stroke-width:0.230489;-inkscape-font-specification:'Arial Bold';font-family:Arial;font-weight:bold;font-style:normal;font-stretch:normal;font-variant:normal">Post Consumo</tspan></text></g></svg>
